<svg width="95.025" height="10.5" viewBox="0 0 95.025 10.5" xmlns="http://www.w3.org/2000/svg"><g id="svgGroup" stroke-linecap="round" fill-rule="evenodd" font-size="9pt" stroke="#000" stroke-width="0.25mm" fill="#000" style="stroke:#000;stroke-width:0.25mm;fill:#000"><path d="M 65.7 1.11 L 65.7 10.5 L 64.485 10.5 L 64.485 0 L 66.615 0 L 68.985 9.39 L 68.985 0 L 70.2 0 L 70.2 10.5 L 68.055 10.5 L 65.7 1.11 Z M 81.9 1.11 L 81.9 10.5 L 80.685 10.5 L 80.685 0 L 82.815 0 L 85.185 9.39 L 85.185 0 L 86.4 0 L 86.4 10.5 L 84.255 10.5 L 81.9 1.11 Z M 51.975 10.5 L 51.12 6.24 L 50.175 10.5 L 48.375 10.5 L 47.865 0 L 48.975 0 L 49.425 9.375 L 50.67 4.425 L 51.6 4.425 L 52.875 9.375 L 53.34 0 L 54.375 0 L 53.865 10.5 L 51.975 10.5 Z M 10.83 10.5 L 10.455 10.5 A 4.283 4.283 0 0 1 9.681 10.435 Q 8.927 10.296 8.453 9.863 Q 7.832 9.295 7.764 8.223 A 4.294 4.294 0 0 1 7.755 7.95 L 7.755 0 L 9.06 0 L 9.06 8.235 Q 9.06 8.7 9.405 9.03 A 1.172 1.172 0 0 0 10.049 9.341 A 1.637 1.637 0 0 0 10.305 9.36 L 10.98 9.36 A 1.523 1.523 0 0 0 11.382 9.31 A 1.144 1.144 0 0 0 11.88 9.03 A 1.113 1.113 0 0 0 12.147 8.648 A 1.076 1.076 0 0 0 12.225 8.235 L 12.225 0 L 13.53 0 L 13.53 7.95 A 3.703 3.703 0 0 1 13.462 8.685 Q 13.375 9.112 13.179 9.439 A 1.893 1.893 0 0 1 12.833 9.863 A 2.258 2.258 0 0 1 11.968 10.346 Q 11.627 10.452 11.217 10.485 A 4.801 4.801 0 0 1 10.83 10.5 Z M 2.385 10.5 L 0.255 10.5 L 0.255 9.36 L 2.535 9.36 A 1.523 1.523 0 0 0 2.937 9.31 A 1.144 1.144 0 0 0 3.435 9.03 A 1.113 1.113 0 0 0 3.702 8.648 A 1.076 1.076 0 0 0 3.78 8.235 L 3.78 6.675 A 1.418 1.418 0 0 0 3.747 6.362 Q 3.695 6.129 3.557 5.958 A 0.906 0.906 0 0 0 3.548 5.948 Q 3.315 5.67 2.85 5.67 L 2.4 5.67 Q 1.29 5.67 0.645 5.018 A 2.086 2.086 0 0 1 0.142 4.157 Q 0 3.704 0 3.12 L 0 2.55 A 3.703 3.703 0 0 1 0.068 1.815 Q 0.155 1.388 0.352 1.061 A 1.893 1.893 0 0 1 0.698 0.638 A 2.258 2.258 0 0 1 1.563 0.155 Q 1.903 0.048 2.313 0.015 A 4.801 4.801 0 0 1 2.7 0 L 4.845 0 L 4.845 1.14 L 2.55 1.14 A 1.523 1.523 0 0 0 2.149 1.19 A 1.144 1.144 0 0 0 1.65 1.47 A 1.113 1.113 0 0 0 1.383 1.853 A 1.076 1.076 0 0 0 1.305 2.265 L 1.305 3.405 A 1.185 1.185 0 0 0 1.367 3.794 A 1.021 1.021 0 0 0 1.605 4.178 A 1.006 1.006 0 0 0 2.239 4.478 A 1.377 1.377 0 0 0 2.385 4.485 L 2.835 4.485 A 2.964 2.964 0 0 1 3.511 4.558 Q 4.104 4.696 4.493 5.1 Q 4.965 5.59 5.061 6.48 A 4.483 4.483 0 0 1 5.085 6.96 L 5.085 7.95 A 3.703 3.703 0 0 1 5.017 8.685 Q 4.93 9.112 4.734 9.439 A 1.893 1.893 0 0 1 4.388 9.863 A 2.258 2.258 0 0 1 3.523 10.346 Q 3.182 10.452 2.772 10.485 A 4.801 4.801 0 0 1 2.385 10.5 Z M 26.685 10.5 L 24.555 10.5 L 24.555 9.36 L 26.835 9.36 A 1.523 1.523 0 0 0 27.237 9.31 A 1.144 1.144 0 0 0 27.735 9.03 A 1.113 1.113 0 0 0 28.002 8.648 A 1.076 1.076 0 0 0 28.08 8.235 L 28.08 6.675 A 1.418 1.418 0 0 0 28.047 6.362 Q 27.995 6.129 27.857 5.958 A 0.906 0.906 0 0 0 27.848 5.948 Q 27.615 5.67 27.15 5.67 L 26.7 5.67 Q 25.59 5.67 24.945 5.018 A 2.086 2.086 0 0 1 24.442 4.157 Q 24.3 3.704 24.3 3.12 L 24.3 2.55 A 3.703 3.703 0 0 1 24.368 1.815 Q 24.455 1.388 24.652 1.061 A 1.893 1.893 0 0 1 24.998 0.638 A 2.258 2.258 0 0 1 25.863 0.155 Q 26.203 0.048 26.613 0.015 A 4.801 4.801 0 0 1 27 0 L 29.145 0 L 29.145 1.14 L 26.85 1.14 A 1.523 1.523 0 0 0 26.449 1.19 A 1.144 1.144 0 0 0 25.95 1.47 A 1.113 1.113 0 0 0 25.683 1.853 A 1.076 1.076 0 0 0 25.605 2.265 L 25.605 3.405 A 1.185 1.185 0 0 0 25.667 3.794 A 1.021 1.021 0 0 0 25.905 4.178 A 1.006 1.006 0 0 0 26.539 4.478 A 1.377 1.377 0 0 0 26.685 4.485 L 27.135 4.485 A 2.964 2.964 0 0 1 27.811 4.558 Q 28.404 4.696 28.793 5.1 Q 29.265 5.59 29.361 6.48 A 4.483 4.483 0 0 1 29.385 6.96 L 29.385 7.95 A 3.703 3.703 0 0 1 29.317 8.685 Q 29.23 9.112 29.034 9.439 A 1.893 1.893 0 0 1 28.688 9.863 A 2.258 2.258 0 0 1 27.823 10.346 Q 27.482 10.452 27.072 10.485 A 4.801 4.801 0 0 1 26.685 10.5 Z M 59.895 10.5 L 58.545 10.5 L 58.545 5.625 L 55.86 0 L 57.3 0 L 59.28 4.365 L 61.26 0 L 62.625 0 L 59.895 5.625 L 59.895 10.5 Z M 93.12 7.845 L 90.195 7.845 L 89.61 10.5 L 88.275 10.5 L 90.81 0 L 92.535 0 L 95.025 10.5 L 93.69 10.5 L 93.12 7.845 Z M 35.595 10.5 L 34.29 10.5 L 34.29 1.14 L 31.905 1.14 L 31.905 0 L 37.98 0 L 37.98 1.14 L 35.595 1.14 L 35.595 10.5 Z M 18.975 10.5 L 15.975 10.5 L 15.975 0 L 18.795 0 A 5.251 5.251 0 0 1 19.49 0.043 Q 20.276 0.148 20.72 0.513 A 1.567 1.567 0 0 1 20.753 0.54 A 1.606 1.606 0 0 1 21.194 1.191 Q 21.296 1.455 21.34 1.786 A 4.162 4.162 0 0 1 21.375 2.34 L 21.375 3.195 A 2.557 2.557 0 0 1 21.278 3.92 A 1.856 1.856 0 0 1 20.55 4.935 A 1.802 1.802 0 0 1 21.478 6.246 A 2.9 2.9 0 0 1 21.525 6.78 L 21.525 8.13 Q 21.525 9.42 20.933 9.96 A 1.726 1.726 0 0 1 20.38 10.289 Q 19.883 10.479 19.142 10.498 A 6.544 6.544 0 0 1 18.975 10.5 Z M 75.75 10.5 L 75.15 10.5 A 4.283 4.283 0 0 1 74.376 10.435 Q 73.622 10.296 73.148 9.863 Q 72.527 9.295 72.459 8.223 A 4.294 4.294 0 0 1 72.45 7.95 L 72.45 2.55 A 3.703 3.703 0 0 1 72.518 1.815 Q 72.605 1.388 72.802 1.061 A 1.893 1.893 0 0 1 73.148 0.638 A 2.258 2.258 0 0 1 74.013 0.155 Q 74.353 0.048 74.763 0.015 A 4.801 4.801 0 0 1 75.15 0 L 75.75 0 A 4.283 4.283 0 0 1 76.524 0.065 Q 77.279 0.204 77.753 0.638 Q 78.373 1.205 78.442 2.278 A 4.294 4.294 0 0 1 78.45 2.55 L 78.45 7.95 A 3.703 3.703 0 0 1 78.382 8.685 Q 78.295 9.112 78.099 9.439 A 1.893 1.893 0 0 1 77.753 9.863 A 2.258 2.258 0 0 1 76.888 10.346 Q 76.547 10.452 76.137 10.485 A 4.801 4.801 0 0 1 75.75 10.5 Z M 75.9 1.14 L 75 1.14 A 1.523 1.523 0 0 0 74.599 1.19 A 1.144 1.144 0 0 0 74.1 1.47 A 1.113 1.113 0 0 0 73.833 1.853 A 1.076 1.076 0 0 0 73.755 2.265 L 73.755 8.235 Q 73.755 8.7 74.1 9.03 A 1.172 1.172 0 0 0 74.744 9.341 A 1.637 1.637 0 0 0 75 9.36 L 75.9 9.36 A 1.523 1.523 0 0 0 76.302 9.31 A 1.144 1.144 0 0 0 76.8 9.03 A 1.113 1.113 0 0 0 77.067 8.648 A 1.076 1.076 0 0 0 77.145 8.235 L 77.145 2.265 Q 77.145 1.8 76.8 1.47 A 1.172 1.172 0 0 0 76.157 1.159 A 1.637 1.637 0 0 0 75.9 1.14 Z M 90.435 6.72 L 92.88 6.72 L 91.65 0.99 L 90.435 6.72 Z M 19.125 5.565 L 17.28 5.565 L 17.28 9.375 L 19.11 9.375 Q 19.68 9.375 19.95 9.113 Q 20.158 8.911 20.206 8.527 A 1.995 1.995 0 0 0 20.22 8.28 L 20.22 6.645 A 1.319 1.319 0 0 0 20.178 6.302 A 0.954 0.954 0 0 0 19.92 5.858 A 1.01 1.01 0 0 0 19.381 5.587 A 1.437 1.437 0 0 0 19.125 5.565 Z M 40.605 5.25 L 45.48 5.25 L 45.48 6.375 L 40.605 6.375 L 40.605 5.25 Z M 18.975 1.125 L 17.28 1.125 L 17.28 4.44 L 18.975 4.44 A 1.188 1.188 0 0 0 19.389 4.37 A 1.057 1.057 0 0 0 19.755 4.14 A 1 1 0 0 0 20.059 3.524 A 1.399 1.399 0 0 0 20.07 3.345 L 20.07 2.205 Q 20.07 1.866 19.977 1.638 A 0.749 0.749 0 0 0 19.808 1.38 A 0.788 0.788 0 0 0 19.531 1.21 Q 19.411 1.165 19.261 1.144 A 2.042 2.042 0 0 0 18.975 1.125 Z" vector-effect="non-scaling-stroke"/></g></svg>