<svg width="522.001" height="70.001" viewBox="0 0 522.001 70.001" xmlns="http://www.w3.org/2000/svg"><g id="svgGroup" stroke-linecap="round" fill-rule="evenodd" font-size="9pt" stroke="#000" stroke-width="0.25mm" fill="#000" style="stroke:#000;stroke-width:0.25mm;fill:#000"><path d="M 492.001 7.4 L 492.001 70 L 483.901 70 L 483.901 0 L 498.101 0 L 513.901 62.6 L 513.901 0 L 522.001 0 L 522.001 70 L 507.701 70 L 492.001 7.4 Z M 400.501 70 L 394.801 41.6 L 388.501 70 L 376.501 70 L 373.101 0 L 380.501 0 L 383.501 62.5 L 391.801 29.5 L 398.001 29.5 L 406.501 62.5 L 409.601 0 L 416.501 0 L 413.101 70 L 400.501 70 Z M 72.201 70 L 69.701 70 Q 63.518 70 59.381 67.854 A 14.067 14.067 0 0 1 56.351 65.75 A 13.425 13.425 0 0 1 52.599 59.65 Q 51.925 57.464 51.757 54.817 A 28.627 28.627 0 0 1 51.701 53 L 51.701 0 L 60.401 0 L 60.401 54.9 A 7.044 7.044 0 0 0 62.559 60.062 A 8.908 8.908 0 0 0 62.701 60.2 A 7.812 7.812 0 0 0 66.991 62.271 A 10.916 10.916 0 0 0 68.701 62.4 L 73.201 62.4 A 10.154 10.154 0 0 0 75.878 62.065 A 7.628 7.628 0 0 0 79.201 60.2 A 7.419 7.419 0 0 0 80.978 57.651 A 7.174 7.174 0 0 0 81.501 54.9 L 81.501 0 L 90.201 0 L 90.201 53 Q 90.201 59.035 87.857 62.928 A 12.622 12.622 0 0 1 85.551 65.75 Q 80.901 70 72.201 70 Z M 15.901 70 L 1.701 70 L 1.701 62.4 L 16.901 62.4 A 10.154 10.154 0 0 0 19.578 62.065 A 7.628 7.628 0 0 0 22.901 60.2 A 7.419 7.419 0 0 0 24.678 57.651 A 7.174 7.174 0 0 0 25.201 54.9 L 25.201 44.5 Q 25.201 41.559 23.711 39.723 A 6.039 6.039 0 0 0 23.651 39.65 A 4.942 4.942 0 0 0 21.068 38.05 Q 20.255 37.832 19.282 37.804 A 10.039 10.039 0 0 0 19.001 37.8 L 16.001 37.8 Q 8.601 37.8 4.301 33.45 A 13.905 13.905 0 0 1 0.945 27.714 Q 0.266 25.541 0.075 22.92 A 29.177 29.177 0 0 1 0.001 20.8 L 0.001 17 Q 0.001 10.966 2.344 7.073 A 12.622 12.622 0 0 1 4.651 4.25 Q 9.301 0 18.001 0 L 32.301 0 L 32.301 7.6 L 17.001 7.6 A 10.154 10.154 0 0 0 14.324 7.936 A 7.628 7.628 0 0 0 11.001 9.8 A 7.419 7.419 0 0 0 9.223 12.35 A 7.174 7.174 0 0 0 8.701 15.1 L 8.701 22.7 A 7.898 7.898 0 0 0 9.111 25.294 A 6.807 6.807 0 0 0 10.701 27.85 A 6.705 6.705 0 0 0 14.93 29.85 A 9.179 9.179 0 0 0 15.901 29.9 L 18.901 29.9 Q 26.001 29.9 29.951 34 A 12.77 12.77 0 0 1 32.786 38.767 Q 33.474 40.757 33.737 43.198 A 29.887 29.887 0 0 1 33.901 46.4 L 33.901 53 Q 33.901 59.035 31.557 62.928 A 12.622 12.622 0 0 1 29.251 65.75 Q 24.601 70 15.901 70 Z M 177.901 70 L 163.701 70 L 163.701 62.4 L 178.901 62.4 A 10.154 10.154 0 0 0 181.578 62.065 A 7.628 7.628 0 0 0 184.901 60.2 A 7.419 7.419 0 0 0 186.678 57.651 A 7.174 7.174 0 0 0 187.201 54.9 L 187.201 44.5 Q 187.201 41.559 185.711 39.723 A 6.039 6.039 0 0 0 185.651 39.65 A 4.942 4.942 0 0 0 183.068 38.05 Q 182.255 37.832 181.282 37.804 A 10.039 10.039 0 0 0 181.001 37.8 L 178.001 37.8 Q 170.601 37.8 166.301 33.45 A 13.905 13.905 0 0 1 162.945 27.714 Q 162.266 25.541 162.075 22.92 A 29.177 29.177 0 0 1 162.001 20.8 L 162.001 17 Q 162.001 10.966 164.344 7.073 A 12.622 12.622 0 0 1 166.651 4.25 Q 171.301 0 180.001 0 L 194.301 0 L 194.301 7.6 L 179.001 7.6 A 10.154 10.154 0 0 0 176.324 7.936 A 7.628 7.628 0 0 0 173.001 9.8 A 7.419 7.419 0 0 0 171.223 12.35 A 7.174 7.174 0 0 0 170.701 15.1 L 170.701 22.7 A 7.898 7.898 0 0 0 171.111 25.294 A 6.807 6.807 0 0 0 172.701 27.85 A 6.705 6.705 0 0 0 176.93 29.85 A 9.179 9.179 0 0 0 177.901 29.9 L 180.901 29.9 Q 188.001 29.9 191.951 34 A 12.77 12.77 0 0 1 194.786 38.767 Q 195.474 40.757 195.737 43.198 A 29.887 29.887 0 0 1 195.901 46.4 L 195.901 53 Q 195.901 59.035 193.557 62.928 A 12.622 12.622 0 0 1 191.251 65.75 Q 186.601 70 177.901 70 Z M 453.301 70 L 444.301 70 L 444.301 37.5 L 426.401 0 L 436.001 0 L 449.201 29.1 L 462.401 0 L 471.501 0 L 453.301 37.5 L 453.301 70 Z M 237.301 70 L 228.601 70 L 228.601 7.6 L 212.701 7.6 L 212.701 0 L 253.201 0 L 253.201 7.6 L 237.301 7.6 L 237.301 70 Z M 126.501 70 L 106.501 70 L 106.501 0 L 125.301 0 Q 133.973 0 138.135 3.418 A 10.443 10.443 0 0 1 138.351 3.6 Q 142.501 7.2 142.501 15.6 L 142.501 21.3 A 17.05 17.05 0 0 1 141.854 26.133 A 12.373 12.373 0 0 1 137.001 32.9 A 12.01 12.01 0 0 1 143.19 41.638 A 19.333 19.333 0 0 1 143.501 45.2 L 143.501 54.2 A 29.611 29.611 0 0 1 143.222 58.416 Q 142.48 63.558 139.763 66.2 A 9.022 9.022 0 0 1 139.551 66.4 Q 135.847 69.776 127.614 69.986 A 43.626 43.626 0 0 1 126.501 70 Z M 127.501 37.1 L 115.201 37.1 L 115.201 62.5 L 127.401 62.5 A 13.077 13.077 0 0 0 129.456 62.35 Q 130.521 62.18 131.366 61.818 A 5.32 5.32 0 0 0 133.001 60.75 Q 134.801 59 134.801 55.2 L 134.801 44.3 A 8.795 8.795 0 0 0 134.519 42.015 A 6.362 6.362 0 0 0 132.801 39.05 A 6.732 6.732 0 0 0 129.208 37.246 A 9.577 9.577 0 0 0 127.501 37.1 Z M 270.701 35 L 303.201 35 L 303.201 42.5 L 270.701 42.5 L 270.701 35 Z M 324.701 35 L 357.201 35 L 357.201 42.5 L 324.701 42.5 L 324.701 35 Z M 126.501 7.5 L 115.201 7.5 L 115.201 29.6 L 126.501 29.6 A 7.917 7.917 0 0 0 129.259 29.135 A 7.049 7.049 0 0 0 131.701 27.6 A 6.665 6.665 0 0 0 133.727 23.492 A 9.324 9.324 0 0 0 133.801 22.3 L 133.801 14.7 A 13.041 13.041 0 0 0 133.662 12.729 Q 133.507 11.72 133.18 10.918 A 4.99 4.99 0 0 0 132.051 9.2 A 5.254 5.254 0 0 0 130.209 8.069 Q 129.406 7.767 128.41 7.625 A 13.613 13.613 0 0 0 126.501 7.5 Z" vector-effect="non-scaling-stroke"/></g></svg>