<svg width="180.28" height="14" viewBox="0 0 180.28 14" xmlns="http://www.w3.org/2000/svg"><g id="svgGroup" stroke-linecap="round" fill-rule="evenodd" font-size="9pt" stroke="#000" stroke-width="0.25mm" fill="#000" style="stroke:#000;stroke-width:0.25mm;fill:#000"><path d="M 136.78 1.44 L 134.78 9.3 L 133.12 9.3 L 131.16 1.44 L 131.16 14 L 129.64 14 L 129.64 0 L 132.42 0 L 134.02 7.16 L 135.64 0 L 138.34 0 L 138.34 14 L 136.78 14 L 136.78 1.44 Z M 23.78 1.48 L 23.78 14 L 22.16 14 L 22.16 0 L 25 0 L 28.16 12.52 L 28.16 0 L 29.78 0 L 29.78 14 L 26.92 14 L 23.78 1.48 Z M 45.38 1.48 L 45.38 14 L 43.76 14 L 43.76 0 L 46.6 0 L 49.76 12.52 L 49.76 0 L 51.38 0 L 51.38 14 L 48.52 14 L 45.38 1.48 Z M 153.38 1.48 L 153.38 14 L 151.76 14 L 151.76 0 L 154.6 0 L 157.76 12.52 L 157.76 0 L 159.38 0 L 159.38 14 L 156.52 14 L 153.38 1.48 Z M 5.48 14 L 4.34 8.32 L 3.08 14 L 0.68 14 L 0 0 L 1.48 0 L 2.08 12.5 L 3.74 5.9 L 4.98 5.9 L 6.68 12.5 L 7.3 0 L 8.68 0 L 8 14 L 5.48 14 Z M 109.04 0 L 115.72 0 L 115.72 1.46 L 110.78 1.46 L 110.78 6.04 L 115.22 6.04 L 115.22 7.5 L 110.78 7.5 L 110.78 12.54 L 115.72 12.54 L 115.72 14 L 109.04 14 L 109.04 0 Z M 122.88 8.2 L 120.92 8.2 L 120.92 14 L 119.18 14 L 119.18 0 L 122.94 0 A 6.161 6.161 0 0 1 123.899 0.07 Q 124.402 0.149 124.805 0.319 A 2.649 2.649 0 0 1 125.51 0.75 A 2.311 2.311 0 0 1 126.182 1.774 Q 126.38 2.348 126.38 3.12 L 126.38 5.04 A 4.286 4.286 0 0 1 126.264 6.078 Q 126.088 6.782 125.646 7.233 A 2.497 2.497 0 0 1 124.58 7.86 L 127.36 14 L 125.46 14 L 122.88 8.2 Z M 79.76 14 L 76.92 14 L 76.92 12.48 L 79.96 12.48 A 2.031 2.031 0 0 0 80.495 12.413 A 1.526 1.526 0 0 0 81.16 12.04 A 1.484 1.484 0 0 0 81.516 11.53 A 1.435 1.435 0 0 0 81.62 10.98 L 81.62 8.9 Q 81.62 8.3 81.31 7.93 Q 81 7.56 80.38 7.56 L 79.78 7.56 A 4.07 4.07 0 0 1 78.796 7.448 A 2.823 2.823 0 0 1 77.44 6.69 A 2.781 2.781 0 0 1 76.769 5.543 Q 76.58 4.938 76.58 4.16 L 76.58 3.4 A 4.937 4.937 0 0 1 76.671 2.421 Q 76.786 1.851 77.049 1.415 A 2.524 2.524 0 0 1 77.51 0.85 A 3.01 3.01 0 0 1 78.663 0.206 Q 79.324 0 80.18 0 L 83.04 0 L 83.04 1.52 L 79.98 1.52 A 2.031 2.031 0 0 0 79.445 1.587 A 1.526 1.526 0 0 0 78.78 1.96 A 1.484 1.484 0 0 0 78.424 2.47 A 1.435 1.435 0 0 0 78.32 3.02 L 78.32 4.54 A 1.58 1.58 0 0 0 78.402 5.059 A 1.361 1.361 0 0 0 78.72 5.57 A 1.341 1.341 0 0 0 79.566 5.97 A 1.836 1.836 0 0 0 79.76 5.98 L 80.36 5.98 A 3.952 3.952 0 0 1 81.262 6.077 Q 82.052 6.262 82.57 6.8 A 2.554 2.554 0 0 1 83.137 7.753 Q 83.36 8.398 83.36 9.28 L 83.36 10.6 A 4.937 4.937 0 0 1 83.269 11.58 Q 83.154 12.15 82.891 12.586 A 2.524 2.524 0 0 1 82.43 13.15 A 3.01 3.01 0 0 1 81.277 13.794 Q 80.616 14 79.76 14 Z M 16.04 14 L 14.24 14 L 14.24 7.5 L 10.66 0 L 12.58 0 L 15.22 5.82 L 17.86 0 L 19.68 0 L 16.04 7.5 L 16.04 14 Z M 142.1 12.54 L 143.9 12.54 L 143.9 1.46 L 142.1 1.46 L 142.1 0 L 147.44 0 L 147.44 1.46 L 145.64 1.46 L 145.64 12.54 L 147.44 12.54 L 147.44 14 L 142.1 14 L 142.1 12.54 Z M 60.34 10.46 L 56.44 10.46 L 55.66 14 L 53.88 14 L 57.26 0 L 59.56 0 L 62.88 14 L 61.1 14 L 60.34 10.46 Z M 168.34 10.46 L 164.44 10.46 L 163.66 14 L 161.88 14 L 165.26 0 L 167.56 0 L 170.88 14 L 169.1 14 L 168.34 10.46 Z M 102.44 14 L 100.7 14 L 100.7 1.52 L 97.52 1.52 L 97.52 0 L 105.62 0 L 105.62 1.52 L 102.44 1.52 L 102.44 14 Z M 174.08 0 L 175.82 0 L 175.82 12.48 L 180.28 12.48 L 180.28 14 L 174.08 14 L 174.08 0 Z M 37.18 14 L 36.38 14 A 5.711 5.711 0 0 1 35.348 13.913 Q 34.771 13.807 34.316 13.571 A 2.813 2.813 0 0 1 33.71 13.15 A 2.685 2.685 0 0 1 32.96 11.93 Q 32.78 11.347 32.78 10.6 L 32.78 3.4 A 4.937 4.937 0 0 1 32.871 2.421 Q 32.986 1.851 33.249 1.415 A 2.524 2.524 0 0 1 33.71 0.85 A 3.01 3.01 0 0 1 34.863 0.206 Q 35.524 0 36.38 0 L 37.18 0 A 5.711 5.711 0 0 1 38.212 0.087 Q 38.789 0.194 39.244 0.429 A 2.813 2.813 0 0 1 39.85 0.85 A 2.685 2.685 0 0 1 40.6 2.07 Q 40.78 2.653 40.78 3.4 L 40.78 10.6 A 4.937 4.937 0 0 1 40.689 11.58 Q 40.574 12.15 40.311 12.586 A 2.524 2.524 0 0 1 39.85 13.15 A 3.01 3.01 0 0 1 38.697 13.794 Q 38.036 14 37.18 14 Z M 37.38 1.52 L 36.18 1.52 A 2.031 2.031 0 0 0 35.645 1.587 A 1.526 1.526 0 0 0 34.98 1.96 A 1.484 1.484 0 0 0 34.624 2.47 A 1.435 1.435 0 0 0 34.52 3.02 L 34.52 10.98 A 1.409 1.409 0 0 0 34.952 12.012 A 1.782 1.782 0 0 0 34.98 12.04 A 1.562 1.562 0 0 0 35.838 12.454 A 2.183 2.183 0 0 0 36.18 12.48 L 37.38 12.48 A 2.031 2.031 0 0 0 37.915 12.413 A 1.526 1.526 0 0 0 38.58 12.04 A 1.484 1.484 0 0 0 38.936 11.53 A 1.435 1.435 0 0 0 39.04 10.98 L 39.04 3.02 A 1.409 1.409 0 0 0 38.608 1.988 A 1.782 1.782 0 0 0 38.58 1.96 A 1.562 1.562 0 0 0 37.722 1.546 A 2.183 2.183 0 0 0 37.38 1.52 Z M 56.76 8.96 L 60.02 8.96 L 58.38 1.32 L 56.76 8.96 Z M 164.76 8.96 L 168.02 8.96 L 166.38 1.32 L 164.76 8.96 Z M 123.18 1.5 L 120.92 1.5 L 120.92 6.7 L 123.18 6.7 A 2.624 2.624 0 0 0 123.575 6.672 Q 123.781 6.641 123.946 6.574 A 1.035 1.035 0 0 0 124.29 6.35 A 1.055 1.055 0 0 0 124.529 5.965 Q 124.64 5.668 124.64 5.24 L 124.64 2.94 A 2.608 2.608 0 0 0 124.612 2.546 Q 124.581 2.344 124.516 2.184 A 0.998 0.998 0 0 0 124.29 1.84 A 1.051 1.051 0 0 0 123.922 1.614 Q 123.761 1.553 123.562 1.525 A 2.723 2.723 0 0 0 123.18 1.5 Z M 68.62 4.94 L 68.22 1.8 L 68.22 0 L 70.12 0 L 70.12 1.8 L 69.72 4.94 L 68.62 4.94 Z" vector-effect="non-scaling-stroke"/></g></svg>