<svg width="225.35" height="17.5" viewBox="0 0 225.35 17.5" xmlns="http://www.w3.org/2000/svg"><g id="svgGroup" stroke-linecap="round" fill-rule="evenodd" font-size="9pt" stroke="#000" stroke-width="0.25mm" fill="#000" style="stroke:#000;stroke-width:0.25mm;fill:#000"><path d="M 170.975 1.8 L 168.475 11.625 L 166.4 11.625 L 163.95 1.8 L 163.95 17.5 L 162.05 17.5 L 162.05 0 L 165.525 0 L 167.525 8.95 L 169.55 0 L 172.925 0 L 172.925 17.5 L 170.975 17.5 L 170.975 1.8 Z M 29.725 1.85 L 29.725 17.5 L 27.7 17.5 L 27.7 0 L 31.25 0 L 35.2 15.65 L 35.2 0 L 37.225 0 L 37.225 17.5 L 33.65 17.5 L 29.725 1.85 Z M 56.725 1.85 L 56.725 17.5 L 54.7 17.5 L 54.7 0 L 58.25 0 L 62.2 15.65 L 62.2 0 L 64.225 0 L 64.225 17.5 L 60.65 17.5 L 56.725 1.85 Z M 191.725 1.85 L 191.725 17.5 L 189.7 17.5 L 189.7 0 L 193.25 0 L 197.2 15.65 L 197.2 0 L 199.225 0 L 199.225 17.5 L 195.65 17.5 L 191.725 1.85 Z M 6.85 17.5 L 5.425 10.4 L 3.85 17.5 L 0.85 17.5 L 0 0 L 1.85 0 L 2.6 15.625 L 4.675 7.375 L 6.225 7.375 L 8.35 15.625 L 9.125 0 L 10.85 0 L 10 17.5 L 6.85 17.5 Z M 136.3 0 L 144.65 0 L 144.65 1.825 L 138.475 1.825 L 138.475 7.55 L 144.025 7.55 L 144.025 9.375 L 138.475 9.375 L 138.475 15.675 L 144.65 15.675 L 144.65 17.5 L 136.3 17.5 L 136.3 0 Z M 153.6 10.25 L 151.15 10.25 L 151.15 17.5 L 148.975 17.5 L 148.975 0 L 153.675 0 A 7.701 7.701 0 0 1 154.874 0.087 Q 156.131 0.286 156.888 0.938 A 2.889 2.889 0 0 1 157.728 2.217 Q 157.975 2.935 157.975 3.9 L 157.975 6.3 Q 157.975 9.125 155.725 9.825 L 159.2 17.5 L 156.825 17.5 L 153.6 10.25 Z M 99.7 17.5 L 96.15 17.5 L 96.15 15.6 L 99.95 15.6 Q 100.875 15.6 101.45 15.05 A 1.855 1.855 0 0 0 101.894 14.413 A 1.793 1.793 0 0 0 102.025 13.725 L 102.025 11.125 Q 102.025 10.375 101.637 9.913 A 1.235 1.235 0 0 0 100.992 9.513 Q 100.76 9.45 100.475 9.45 L 99.725 9.45 A 5.088 5.088 0 0 1 98.495 9.31 A 3.529 3.529 0 0 1 96.8 8.363 A 3.476 3.476 0 0 1 95.961 6.928 Q 95.725 6.173 95.725 5.2 L 95.725 4.25 A 6.172 6.172 0 0 1 95.839 3.026 Q 95.983 2.313 96.311 1.768 A 3.155 3.155 0 0 1 96.887 1.063 A 3.763 3.763 0 0 1 98.329 0.258 Q 98.897 0.081 99.58 0.025 A 8.001 8.001 0 0 1 100.225 0 L 103.8 0 L 103.8 1.9 L 99.975 1.9 Q 99.05 1.9 98.475 2.45 A 1.855 1.855 0 0 0 98.031 3.088 A 1.793 1.793 0 0 0 97.9 3.775 L 97.9 5.675 A 1.974 1.974 0 0 0 98.003 6.324 A 1.702 1.702 0 0 0 98.4 6.963 Q 98.9 7.475 99.7 7.475 L 100.45 7.475 Q 102.116 7.475 103.088 8.378 A 3.135 3.135 0 0 1 103.212 8.5 A 3.192 3.192 0 0 1 103.921 9.692 Q 104.093 10.189 104.159 10.8 A 7.472 7.472 0 0 1 104.2 11.6 L 104.2 13.25 A 6.172 6.172 0 0 1 104.086 14.475 Q 103.942 15.187 103.614 15.732 A 3.155 3.155 0 0 1 103.038 16.438 A 3.763 3.763 0 0 1 101.596 17.243 Q 101.028 17.42 100.345 17.475 A 8.001 8.001 0 0 1 99.7 17.5 Z M 20.05 17.5 L 17.8 17.5 L 17.8 9.375 L 13.325 0 L 15.725 0 L 19.025 7.275 L 22.325 0 L 24.6 0 L 20.05 9.375 L 20.05 17.5 Z M 177.625 15.675 L 179.875 15.675 L 179.875 1.825 L 177.625 1.825 L 177.625 0 L 184.3 0 L 184.3 1.825 L 182.05 1.825 L 182.05 15.675 L 184.3 15.675 L 184.3 17.5 L 177.625 17.5 L 177.625 15.675 Z M 75.425 13.075 L 70.55 13.075 L 69.575 17.5 L 67.35 17.5 L 71.575 0 L 74.45 0 L 78.6 17.5 L 76.375 17.5 L 75.425 13.075 Z M 210.425 13.075 L 205.55 13.075 L 204.575 17.5 L 202.35 17.5 L 206.575 0 L 209.45 0 L 213.6 17.5 L 211.375 17.5 L 210.425 13.075 Z M 128.05 17.5 L 125.875 17.5 L 125.875 1.9 L 121.9 1.9 L 121.9 0 L 132.025 0 L 132.025 1.9 L 128.05 1.9 L 128.05 17.5 Z M 217.6 0 L 219.775 0 L 219.775 15.6 L 225.35 15.6 L 225.35 17.5 L 217.6 17.5 L 217.6 0 Z M 46.475 17.5 L 45.475 17.5 Q 43.3 17.5 42.138 16.438 A 3.356 3.356 0 0 1 41.2 14.913 Q 41.031 14.366 40.989 13.704 A 7.157 7.157 0 0 1 40.975 13.25 L 40.975 4.25 A 6.172 6.172 0 0 1 41.089 3.026 Q 41.233 2.313 41.561 1.768 A 3.155 3.155 0 0 1 42.137 1.063 A 3.763 3.763 0 0 1 43.579 0.258 Q 44.147 0.081 44.83 0.025 A 8.001 8.001 0 0 1 45.475 0 L 46.475 0 Q 48.65 0 49.813 1.063 A 3.356 3.356 0 0 1 50.75 2.588 Q 50.919 3.134 50.961 3.796 A 7.157 7.157 0 0 1 50.975 4.25 L 50.975 13.25 A 6.172 6.172 0 0 1 50.861 14.475 Q 50.717 15.187 50.389 15.732 A 3.155 3.155 0 0 1 49.813 16.438 A 3.763 3.763 0 0 1 48.371 17.243 Q 47.803 17.42 47.12 17.475 A 8.001 8.001 0 0 1 46.475 17.5 Z M 46.725 1.9 L 45.225 1.9 Q 44.3 1.9 43.725 2.45 A 1.855 1.855 0 0 0 43.281 3.088 A 1.793 1.793 0 0 0 43.15 3.775 L 43.15 13.725 A 1.761 1.761 0 0 0 43.69 15.016 A 2.227 2.227 0 0 0 43.725 15.05 A 1.953 1.953 0 0 0 44.797 15.568 A 2.729 2.729 0 0 0 45.225 15.6 L 46.725 15.6 Q 47.65 15.6 48.225 15.05 A 1.855 1.855 0 0 0 48.669 14.413 A 1.793 1.793 0 0 0 48.8 13.725 L 48.8 3.775 A 1.761 1.761 0 0 0 48.26 2.485 A 2.227 2.227 0 0 0 48.225 2.45 A 1.953 1.953 0 0 0 47.153 1.932 A 2.729 2.729 0 0 0 46.725 1.9 Z M 70.95 11.2 L 75.025 11.2 L 72.975 1.65 L 70.95 11.2 Z M 205.95 11.2 L 210.025 11.2 L 207.975 1.65 L 205.95 11.2 Z M 153.975 1.875 L 151.15 1.875 L 151.15 8.375 L 153.975 8.375 Q 154.546 8.375 154.932 8.217 A 1.293 1.293 0 0 0 155.362 7.938 A 1.318 1.318 0 0 0 155.662 7.457 Q 155.739 7.247 155.774 6.987 A 3.376 3.376 0 0 0 155.8 6.55 L 155.8 3.675 Q 155.8 3.109 155.645 2.73 A 1.248 1.248 0 0 0 155.363 2.3 A 1.314 1.314 0 0 0 154.902 2.017 Q 154.701 1.942 154.452 1.906 A 3.403 3.403 0 0 0 153.975 1.875 Z M 85.775 6.175 L 85.275 2.25 L 85.275 0 L 87.65 0 L 87.65 2.25 L 87.15 6.175 L 85.775 6.175 Z" vector-effect="non-scaling-stroke"/></g></svg>